# xmcd CD database file
#
# Track frame offsets:
#	182
#	23245
#	45735
#	66572
#	106495
#
# Disc length: 1763 seconds
#
# Revision: 0
# Processed by: cddbd v1.5.1PL0 Copyright (c) Steve Scherf et al.
# Submitted via: CDex 1.51
#
DISCID=4306e105
DTITLE=Lee Ritenour - A Twist of Jobin (Promo CD)
DYEAR=1996
DGENRE=Jazz
TTITLE0=Water to drink
TTITLE1=Dindi
TTITLE2=Waters of march
TTITLE3=Stone flower
TTITLE4=Interview with Lee Ritenour
EXTD=YEAR: 1996
EXTT0=
EXTT1=
EXTT2=
EXTT3=
EXTT4=
PLAYORDER=
